<?xml version="1.0" encoding="UTF-8"?>
<!DOCTYPE svg PUBLIC "-//W3C//DTD SVG 1.1//EN" "http://www.w3.org/Graphics/SVG/1.1/DTD/svg11.dtd">
<svg xmlns="http://www.w3.org/2000/svg" version="1.1" width="100px" height="100px" style="shape-rendering:geometricPrecision; text-rendering:geometricPrecision; image-rendering:optimizeQuality; fill-rule:evenodd; clip-rule:evenodd" xmlns:xlink="http://www.w3.org/1999/xlink">
<g><path style="opacity:0.882" fill="#007887" d="M 39.5,-0.5 C 41.1667,-0.5 42.8333,-0.5 44.5,-0.5C 62.642,8.7984 69.142,23.4651 64,43.5C 61.6123,47.3765 58.1123,49.3765 53.5,49.5C 42.6448,46.0729 32.9782,40.5729 24.5,33C 32.4986,26.1103 41.8319,22.7769 52.5,23C 44.3987,17.301 40.0653,9.46766 39.5,-0.5 Z M 50.5,31.5 C 55.4058,30.3057 58.4058,32.139 59.5,37C 56.8905,43.2417 53.0572,44.075 48,39.5C 47.0182,36.2253 47.8515,33.5586 50.5,31.5 Z"/></g>
<g><path style="opacity:0.922" fill="#e84242" d="M 59.5,99.5 C 57.5,99.5 55.5,99.5 53.5,99.5C 66.0935,77.7926 71.0935,54.4593 68.5,29.5C 72.0036,30.8115 75.1702,32.8115 78,35.5C 86.7035,45.6247 89.7035,57.2914 87,70.5C 82.7527,84.912 73.5861,94.5787 59.5,99.5 Z"/></g>
<g><path style="opacity:0.946" fill="#007988" d="M 21.5,34.5 C 27.7282,38.5495 33.5615,43.2162 39,48.5C 53.8676,68.3062 49.7009,82.6396 26.5,91.5C 18.7204,86.6303 13.8871,79.6303 12,70.5C 9.56159,56.915 12.7283,44.915 21.5,34.5 Z"/></g>
<g><path style="opacity:0.834" fill="#007988" d="M 46.5,99.5 C 44.1667,99.5 41.8333,99.5 39.5,99.5C 36.976,98.2601 34.3093,97.0934 31.5,96C 37.4985,90.8393 44.1651,87.006 51.5,84.5C 51.2703,89.9638 49.6036,94.9638 46.5,99.5 Z"/></g>
</svg>
